<svg width="105" height="36" viewBox="0 0 105 36" fill="none" xmlns="http://www.w3.org/2000/svg">
<path fill-rule="evenodd" clip-rule="evenodd" d="M11.9347 11.6816C5.44477 15.4583 1.84879 19.539 2.38686 23.3359C3.68763 32.5149 28.6562 36.5594 58.1556 32.3695C67.0255 31.1097 75.295 29.2489 82.488 27.0129C79.3426 27.6724 76.0998 28.2605 72.7795 28.7669C42.5519 31.904 13.2601 28.7669 10.2721 17.8674C9.96531 15.8511 10.5589 13.7689 11.9347 11.6816Z" fill="#585F93"/>
<path fill-rule="evenodd" clip-rule="evenodd" d="M91.6579 21.1837H97.065C101.185 18.121 103.338 14.9457 102.913 11.9474C101.612 2.76844 76.6439 -1.27606 47.1444 2.91381C40.2359 3.89505 33.6915 5.24089 27.7363 6.84464C29.4377 6.55277 31.164 6.28191 32.9123 6.03361C64.5595 1.53868 91.6616 8.10488 92.8235 16.3039C93.0496 17.8999 92.6369 19.5382 91.6579 21.1837Z" fill="#585F93"/>
<path d="M21.7634 4.15625L22.0784 6.67882L27.1178 6.99414L22.7083 8.88606V12.6699L17.9838 10.4627L12.3145 11.7239L15.1491 9.20138L12.3145 6.99414L17.9838 6.67882L21.7634 4.15625Z" fill="#E03616"/>
<path d="M32.4988 13.6543V21.1678C32.4988 22.1831 31.8902 22.8793 29.4707 22.8793C27.0366 22.8793 26.4426 22.1831 26.4426 21.1678V13.6543H21.7773V21.5304C21.7773 23.7496 23.5449 25.2291 29.4707 25.2291C35.382 25.2291 37.164 23.7496 37.164 21.5304V13.6543H32.4988Z" fill="#585F93"/>
<path d="M43.7466 22.7053V13.6543H39.0814V24.968H52.2223V22.7053H43.7466Z" fill="#585F93"/>
<path d="M63.9908 13.6543H48.3143V15.9315H53.8199V24.968H58.4852V15.9315H63.9908V13.6543Z" fill="#585F93"/>
<path d="M65.0445 24.968H78.9678V22.7053H69.7097V20.1524H78.2869V18.2233H69.7097V15.9315H78.765V13.6543H65.0445V24.968Z" fill="#585F93"/>
<path d="M85.0754 22.7053V13.6543H80.4101V24.968H93.5511V22.7053H85.0754Z" fill="#585F93"/>
</svg>
